# xmcd CD database file
#
# Track frame offsets:
#	150
#	19058
#	36047
#	55607
#	82674
#	109528
#	124058
#	145910
#	164296
#	190216
#	212320
#	231635
#	253627
#	279092
#	305752
#	323876
#
# Disc length: 4611 seconds
#
# Revision: 3
# Processed by: cddbd v1.5.2PL0 Copyright (c) Steve Scherf et al.
# Submitted via: CDex 1.50
#
DISCID=d0120110
DTITLE=Anbetung Gold - CD 03
DYEAR=2007
DGENRE=Christian Rock
TTITLE0=Arne Kopfermann - Halleluja
TTITLE1=Ingo Beckmann - Feiert Jesus
TTITLE2=Lothar Kosse - Herr der Ewigkeit
TTITLE3=Sebastian Cuthbert - Mit ganzem Herzen
TTITLE4=Lothar Kosse - Ich weiß, dass mein Erlöser lebt
TTITLE5=Anja Lehmann - Über alle Welt
TTITLE6=Andrea Adams-Frey - Herr, du bist mächtig
TTITLE7=Johannes Falk - Von den Gipfeln der Welt
TTITLE8=André Massoli - Auge im Sturm
TTITLE9=Arne Kopfermann - Von ganzem Herzen
TTITLE10=Anja Lehmann - Ich lieb dich, Herr
TTITLE11=Michael Janz - Sei das Zentrum
TTITLE12=Yasmina Hunzinger - Ich will dich anbeten
TTITLE13=Sara Lorenz - Das, was mich atmen lässt
TTITLE14=Stephanie Heinen und Volker Alipaß - Keiner ist wie du
TTITLE15=Andreas Volz - Ströme lebendigen Wassers
EXTD=www.gerth.de, Art.-Nr. 946362 YEAR: 2007
EXTT0=
EXTT1=
EXTT2=
EXTT3=
EXTT4=
EXTT5=
EXTT6=
EXTT7=
EXTT8=
EXTT9=
EXTT10=
EXTT11=
EXTT12=
EXTT13=
EXTT14=
EXTT15=
PLAYORDER=
